# xmcd
#
# Track frame offsets:
#	150
#	15585
#	27846
#	42419
#	53344
#	63995
#	76092
#	88441
#	98322
#	108160
#	118319
#	130102
#
# Disc length: 1900 seconds
#
# Revision: 1
# Processed by: cddbd v1.5.2PL0 Copyright (c) Steve Scherf et al.
# Submitted via: audiograbber 1.83.01
#
DISCID=8a076a0c
DTITLE=Bobby Bare - The Streets Of Baltimore
DYEAR=1966
DGENRE=Country
TTITLE0=Early Morning Rain
TTITLE1=Houston
TTITLE2=Saginaw Michigan
TTITLE3=Take Me Home To Mama
TTITLE4=Memphis Tennessee
TTITLE5=Streets Of Baltimore
TTITLE6=That's How I Wanted It To Be
TTITLE7=Vincennes
TTITLE8=Cold And Lonely City
TTITLE9=Changin' My Mind
TTITLE10=There Ain't No Fun In This Town
TTITLE11=Green Green Grass Of Home
EXTD=
EXTT0=
EXTT1=
EXTT2=
EXTT3=
EXTT4=
EXTT5=
EXTT6=
EXTT7=
EXTT8=
EXTT9=
EXTT10=
EXTT11=
PLAYORDER=
